<?xml version="1.0" standalone="no"?>
<!DOCTYPE svg PUBLIC "-//W3C//DTD SVG 20010904//EN"
 "http://www.w3.org/TR/2001/REC-SVG-20010904/DTD/svg10.dtd">
<svg version="1.0" xmlns="http://www.w3.org/2000/svg"
 width="400.000000pt" height="400.000000pt" viewBox="0 0 400.000000 400.000000"
 preserveAspectRatio="xMidYMid meet">
<metadata>
Created by potrace 1.14, written by Peter Selinger 2001-2017
</metadata>
<g transform="translate(0.000000,400.000000) scale(0.100000,-0.100000)"
fill="#000000" stroke="none">
<path d="M2341 2891 c-20 -22 -54 -72 -76 -112 -38 -69 -43 -74 -99 -96 -52
-20 -81 -23 -210 -25 -177 -3 -168 -7 -287 106 -107 100 -161 137 -210 143
-40 6 -79 -15 -79 -42 0 -6 -9 -30 -20 -53 -11 -22 -20 -63 -21 -89 -1 -47 -1
-47 -10 -15 -11 38 -34 51 -54 31 -7 -8 -28 -60 -46 -117 -37 -115 -43 -114
-55 9 -8 87 -18 119 -38 119 -34 0 -37 -25 -18 -142 21 -124 43 -188 65 -188
21 0 31 16 67 113 18 48 36 84 40 80 4 -4 13 -41 19 -80 7 -40 21 -84 32 -97
21 -27 22 -25 -15 -206 -17 -84 -59 -206 -103 -300 -52 -110 -73 -191 -83
-318 -5 -62 -14 -131 -20 -154 -10 -34 -12 -146 -7 -283 0 -16 -1 -48 -4 -70
l-4 -40 215 -7 c118 -4 251 -10 296 -13 l81 -7 -4 -140 c-5 -166 -1 -191 30
-186 20 3 22 10 28 83 6 87 23 131 66 164 49 40 57 28 65 -96 7 -119 19 -156
46 -151 15 3 17 18 13 133 -2 86 -8 139 -17 157 l-15 28 77 0 77 0 -27 -25
c-48 -44 -30 -117 32 -131 68 -15 94 -27 104 -50 15 -32 3 -44 -52 -51 -31 -4
-52 -1 -77 12 -31 17 -35 17 -49 3 -39 -39 44 -85 135 -75 152 17 140 183 -15
215 -49 10 -50 32 -4 54 65 30 80 32 80 8 0 -11 7 -23 15 -26 22 -9 47 15 40
37 -5 16 -1 19 30 19 l37 0 -6 -57 c-9 -83 8 -201 32 -226 23 -22 95 -33 132
-19 16 6 31 6 41 -1 9 -6 24 -7 33 -4 14 6 16 27 16 157 l0 150 47 0 46 0 -6
-143 c-4 -78 -3 -148 2 -155 5 -8 17 -12 27 -10 22 4 31 66 33 221 l1 87 30 0
c17 0 39 -9 50 -20 11 -11 33 -20 49 -20 37 0 41 -15 41 -153 0 -87 3 -109 15
-113 8 -4 23 0 31 7 14 12 16 32 12 136 l-5 123 33 0 c48 0 64 9 64 36 0 22
-4 24 -50 24 l-50 0 0 38 c0 47 -12 66 -38 60 -18 -5 -20 1 -25 91 -3 53 -11
126 -18 164 -10 56 -10 89 2 190 20 169 18 410 -3 459 -9 20 -28 83 -43 140
-40 156 -83 220 -214 321 -141 109 -131 89 -131 253 0 116 -3 145 -16 158 -27
28 -64 19 -103 -23z m526 -1833 c-2 -13 -4 -3 -4 22 0 25 2 35 4 23 2 -13 2
-33 0 -45z m-1069 -47 c-34 -30 -48 -26 -48 12 0 13 9 17 40 17 l40 0 -32 -29z
m704 -110 c-3 -113 -4 -119 -25 -125 -30 -8 -80 -7 -93 2 -16 10 -26 110 -18
181 l7 61 66 0 66 0 -3 -119z"/>
<path d="M361 2736 c-9 -11 -7 -40 7 -128 21 -124 43 -188 65 -188 21 0 31 16
67 113 18 48 36 84 40 80 4 -4 12 -39 19 -78 14 -80 33 -115 61 -115 26 0 44
37 85 182 31 106 34 124 21 136 -28 29 -43 6 -72 -112 -15 -64 -31 -116 -35
-116 -3 0 -13 46 -23 101 -18 108 -29 139 -50 139 -22 0 -31 -19 -67 -128 -37
-115 -43 -114 -55 9 -4 41 -11 84 -15 97 -10 25 -31 29 -48 8z"/>
<path d="M860 2732 c-50 -25 -80 -83 -80 -157 0 -102 58 -163 143 -152 71 10
117 76 117 171 0 127 -80 188 -180 138z m106 -63 c13 -15 18 -36 19 -81 0 -53
-3 -62 -28 -84 -61 -52 -117 -16 -117 74 0 46 4 58 29 83 35 34 70 37 97 8z"/>
<path d="M3120 1155 c-10 -12 -10 -18 0 -30 20 -25 55 -15 55 15 0 30 -35 40
-55 15z"/>
<path d="M3274 1039 c-9 -16 -18 -274 -9 -306 4 -18 11 -23 28 -21 20 3 22 10
28 83 6 87 23 131 66 164 49 40 57 28 65 -96 7 -119 19 -156 46 -151 15 3 17
18 13 133 -3 133 -14 176 -46 189 -34 13 -65 5 -99 -25 l-35 -30 -9 33 c-9 34
-34 48 -48 27z"/>
<path d="M1123 1021 c-72 -45 -113 -176 -74 -238 43 -68 117 -89 195 -55 33
15 46 27 46 42 0 28 -22 34 -59 16 -69 -36 -141 -4 -141 62 0 49 38 114 73
126 20 7 36 5 63 -8 32 -15 39 -15 51 -3 21 20 6 44 -38 61 -52 21 -77 20
-116 -3z"/>
<path d="M1430 1022 c-50 -25 -80 -83 -80 -157 0 -102 58 -163 143 -152 71 10
117 76 117 171 0 127 -80 188 -180 138z m106 -63 c13 -15 18 -36 19 -81 0 -53
-3 -62 -28 -84 -61 -52 -117 -16 -117 74 0 46 4 58 29 83 35 34 70 37 97 8z"/>
<path d="M3116 1028 c-2 -7 -7 -51 -10 -96 -7 -110 2 -202 22 -210 30 -11 37
23 37 169 0 142 0 144 -23 147 -12 2 -24 -3 -26 -10z"/>
<path d="M3650 1017 c-57 -30 -90 -90 -90 -162 0 -117 109 -187 181 -116 l29
29 0 -26 c0 -49 -21 -102 -45 -118 -18 -12 -43 -15 -92 -12 -64 3 -68 2 -71
-19 -3 -17 3 -26 23 -33 41 -15 116 -12 154 8 58 29 71 57 82 173 6 57 14 133
18 169 10 76 4 92 -43 114 -47 22 -95 20 -146 -7z m119 -47 c15 -8 17 -16 10
-57 -4 -26 -8 -53 -8 -60 -2 -24 -63 -83 -87 -83 -86 0 -86 165 0 200 29 12
64 12 85 0z"/>
</g>
</svg>
